<svg version="1.1" xmlns="http://www.w3.org/2000/svg" viewBox="2.38 -90 108 108">
  <path class="monochrome-0 multicolor-0:cyan hierarchical-0:tertiary" fill="#55BEF0" d="M20.11-1.11205L20.11-32.5121L11.91-32.5121L11.91-32.5121C10.71-32.5121 9.71-33.5121 9.71-34.7121C9.71-35.2121 9.91-35.8121 10.31-36.2121L54.31-81.0121L54.31-81.0121C55.41-82.0121 57.11-82.1121 58.21-81.0121L58.21-81.0121L81.21-57.8121L81.21-62.1121L81.21-62.1121C81.21-63.1121 82.01-63.9121 83.01-63.9121L90.61-63.9121L90.61-63.9121C91.61-63.9121 92.41-63.1121 92.41-62.1121L92.41-46.3121L102.21-36.3121C103.11-35.4121 103.11-34.0121 102.21-33.2121C101.81-32.8121 101.31-32.6121 100.71-32.6121L92.51-32.6121L92.51-1.21205C92.51-0.212054 91.71 0.587946 90.71 0.587946L21.91 0.587946C20.91 0.587946 20.11-0.212054 20.11-1.11205Z"/>
  <path class="monochrome-1#clear%0 multicolor-1:white%0 hierarchical-1:primary%0" fill="#FFFFFF" d="M56.27-60.4121C51.87-60.4121 48.27-56.8121 48.27-52.4121C48.27-49.0121 50.37-46.2121 53.27-45.0121L53.27 0.887946L59.27 0.887946L59.27-45.0121C62.17-46.1121 64.27-49.0121 64.27-52.4121C64.27-56.8121 60.67-60.4121 56.27-60.4121ZM56.27-48.4121C54.07-48.4121 52.27-50.2121 52.27-52.4121C52.27-54.6121 54.07-56.4121 56.27-56.4121C58.47-56.4121 60.27-54.6121 60.27-52.4121C60.27-50.2121 58.47-48.4121 56.27-48.4121Z"/>
  <path class="monochrome-2#clear%34 multicolor-2:white%34 hierarchical-2:primary%34" fill="#FFFFFF" d="M45.47-28.7121C45.87-29.7121 46.07-30.7121 46.07-31.8121C46.07-36.2121 42.47-39.8121 38.07-39.8121C33.67-39.8121 30.07-36.2121 30.07-31.8121C30.07-27.4121 33.67-23.8121 38.07-23.8121C39.17-23.8121 40.27-24.0121 41.17-24.4121L53.17-12.4121L53.17-20.9121L53.27-20.9121L45.47-28.7121ZM38.07-27.8121C35.87-27.8121 34.07-29.6121 34.07-31.8121C34.07-34.0121 35.87-35.8121 38.07-35.8121C40.27-35.8121 42.07-34.0121 42.07-31.8121C42.07-29.6121 40.27-27.8121 38.07-27.8121Z"/>
  <path class="monochrome-3#clear%68 multicolor-3:white%68 hierarchical-3:primary%68" fill="#FFFFFF" d="M74.47-39.8121C70.07-39.8121 66.47-36.2121 66.47-31.8121C66.47-30.7121 66.67-29.6121 67.07-28.7121L59.27-20.9121L59.27-12.4121L71.27-24.4121C72.27-24.0121 73.27-23.8121 74.37-23.8121C78.77-23.8121 82.37-27.4121 82.37-31.8121C82.47-36.2121 78.87-39.8121 74.47-39.8121ZM74.47-27.8121C72.27-27.8121 70.47-29.6121 70.47-31.8121C70.47-34.0121 72.17-35.8121 74.47-35.8121C76.67-35.8121 78.47-34.0121 78.47-31.8121C78.47-29.6121 76.67-27.8121 74.47-27.8121Z"/>
</svg>
